<svg xmlns="http://www.w3.org/2000/svg" xmlns:svg="http://www.w3.org/2000/svg" id="svg7384" width="16" height="16" version="1.1"><metadata id="metadata90"/><title id="title9167">Gnome Symbolic Icon Theme</title><g id="layer11" transform="translate(-323,-649.00012)"><path d="m 324.86255,655.18336 12.26828,0 0,8.66016 c 0,0.60384 -0.57987,1.15015 -1.22203,1.15015 l -9.81943,0 c -0.66133,0 -1.22682,-0.5271 -1.22682,-1.22683 z" style="marker:none" id="path5354" fill="#bebebe" fill-opacity="1" fill-rule="nonzero" stroke="none" stroke-width="2" color="#bebebe" display="inline" enable-background="accumulate" overflow="visible" visibility="visible"/><path id="path5356" fill="#bebebe" fill-opacity="1" stroke="none" stroke-width="2" d="m 329.38623,649.01073 a 1.2269514,1.2269514 0 0 0 -0.80511,0.46006 l -3.45045,4.25556 a 1.2269514,1.2269514 0 0 0 -0.26837,0.76677 l 0,1.22683 a 1.2269514,1.2269514 0 1 0 2.45366,0 l 0,-0.80511 3.18208,-3.87218 a 1.2269514,1.2269514 0 0 0 -1.11181,-2.03193 z" baseline-shift="baseline" color="#000" direction="ltr" display="inline" enable-background="accumulate" font-family="Sans" font-size="medium" font-stretch="normal" font-style="normal" font-variant="normal" font-weight="normal" letter-spacing="normal" overflow="visible" text-anchor="start" text-decoration="none" visibility="visible" word-spacing="normal" writing-mode="lr-tb" style="text-indent:0;text-align:start;line-height:normal;text-transform:none;block-progression:tb;marker:none;-inkscape-font-specification:Sans"/><path id="path5358" fill="#bebebe" fill-opacity="1" stroke="none" stroke-width="2" d="m 332.10826,652.69121 a 1.2269795,1.2269795 0 0 0 -0.0383,2.45366 l 2.64535,0.46006 0,0.19169 a 1.2269514,1.2269514 0 1 0 2.45366,0 l 0,-1.22682 a 1.2269514,1.2269514 0 0 0 -0.9968,-1.22683 l -3.68049,-0.61342 a 1.2269514,1.2269514 0 0 0 -0.38338,-0.0383 z" baseline-shift="baseline" color="#000" direction="ltr" display="inline" enable-background="accumulate" font-family="Sans" font-size="medium" font-stretch="normal" font-style="normal" font-variant="normal" font-weight="normal" letter-spacing="normal" overflow="visible" text-anchor="start" text-decoration="none" visibility="visible" word-spacing="normal" writing-mode="lr-tb" style="text-indent:0;text-align:start;line-height:normal;text-transform:none;block-progression:tb;marker:none;-inkscape-font-specification:Sans"/></g></svg>